<svg xmlns="http://www.w3.org/2000/svg" xmlns:xlink="http://www.w3.org/1999/xlink" width="500" zoomAndPan="magnify" viewBox="0 0 375 374.999991" height="500" preserveAspectRatio="xMidYMid meet" version="1.0"><defs><g/></defs><g fill="#ff0000" fill-opacity="1"><g transform="translate(-2.883443, 74.447456)"><g><path d="M 4.078125 -56.09375 L 21.484375 -56.09375 C 26.742188 -56.09375 30.9375 -54.972656 34.0625 -52.734375 C 37.195312 -50.492188 38.765625 -46.851562 38.765625 -41.8125 C 38.765625 -36.195312 36.425781 -32.1875 31.75 -29.78125 C 39.726562 -28.375 43.71875 -23.660156 43.71875 -15.640625 C 43.71875 -10.921875 42.085938 -7.132812 38.828125 -4.28125 C 35.566406 -1.425781 31.078125 0 25.359375 0 L 4.078125 0 Z M 16.859375 -34.140625 L 17.890625 -34.140625 C 20.742188 -34.140625 22.875 -34.632812 24.28125 -35.625 C 25.6875 -36.625 26.390625 -38.257812 26.390625 -40.53125 C 26.390625 -44.332031 23.554688 -46.234375 17.890625 -46.234375 L 16.859375 -46.234375 Z M 16.859375 -9.859375 L 20.875 -9.859375 C 27.132812 -9.859375 30.265625 -11.941406 30.265625 -16.109375 C 30.265625 -18.609375 29.476562 -20.398438 27.90625 -21.484375 C 26.34375 -22.578125 24 -23.125 20.875 -23.125 L 16.859375 -23.125 Z M 16.859375 -9.859375 "/></g></g></g><g fill="#ff0000" fill-opacity="1"><g transform="translate(45.7966, 74.447456)"><g><path d="M 47.1875 -56.09375 L 47.1875 -19.921875 C 47.1875 -13.035156 45.328125 -7.820312 41.609375 -4.28125 C 37.898438 -0.75 32.460938 1.015625 25.296875 1.015625 C 18.128906 1.015625 12.6875 -0.75 8.96875 -4.28125 C 5.257812 -7.820312 3.40625 -13.035156 3.40625 -19.921875 L 3.40625 -56.09375 L 16.1875 -56.09375 L 16.1875 -23.65625 C 16.1875 -19.125 16.898438 -15.972656 18.328125 -14.203125 C 19.753906 -12.441406 22.078125 -11.5625 25.296875 -11.5625 C 28.515625 -11.5625 30.835938 -12.441406 32.265625 -14.203125 C 33.691406 -15.972656 34.40625 -19.125 34.40625 -23.65625 L 34.40625 -56.09375 Z M 47.1875 -56.09375 "/></g></g></g><g fill="#ff0000" fill-opacity="1"><g transform="translate(99.779687, 74.447456)"><g><path d="M 54.8125 -31.421875 L 54.8125 -19.25 C 53.351562 -12.582031 50.175781 -7.535156 45.28125 -4.109375 C 40.382812 -0.691406 34.925781 1.015625 28.90625 1.015625 C 21.332031 1.015625 14.878906 -1.816406 9.546875 -7.484375 C 4.222656 -13.148438 1.5625 -19.992188 1.5625 -28.015625 C 1.5625 -36.171875 4.164062 -43.0625 9.375 -48.6875 C 14.59375 -54.3125 21.101562 -57.125 28.90625 -57.125 C 38.007812 -57.125 45.21875 -53.925781 50.53125 -47.53125 L 42.15625 -38.359375 C 39.164062 -43.160156 34.992188 -45.5625 29.640625 -45.5625 C 25.703125 -45.5625 22.335938 -43.847656 19.546875 -40.421875 C 16.765625 -37.003906 15.375 -32.867188 15.375 -28.015625 C 15.375 -23.253906 16.765625 -19.1875 19.546875 -15.8125 C 22.335938 -12.4375 25.703125 -10.75 29.640625 -10.75 C 32.910156 -10.75 35.753906 -11.734375 38.171875 -13.703125 C 40.597656 -15.671875 41.8125 -18.289062 41.8125 -21.5625 L 28.90625 -21.5625 L 28.90625 -31.421875 Z M 54.8125 -31.421875 "/></g></g></g><g fill="#ff0000" fill-opacity="1"><g transform="translate(159.541748, 74.447456)"><g><path d="M 24.75 -57.125 C 27.789062 -57.125 30.757812 -56.679688 33.65625 -55.796875 C 36.5625 -54.910156 38.71875 -54.035156 40.125 -53.171875 L 42.15625 -51.8125 L 36.984375 -41.609375 C 36.578125 -41.890625 36.007812 -42.242188 35.28125 -42.671875 C 34.5625 -43.097656 33.203125 -43.671875 31.203125 -44.390625 C 29.210938 -45.117188 27.359375 -45.484375 25.640625 -45.484375 C 23.503906 -45.484375 21.859375 -45.03125 20.703125 -44.125 C 19.546875 -43.21875 18.96875 -41.992188 18.96875 -40.453125 C 18.96875 -39.679688 19.238281 -38.96875 19.78125 -38.3125 C 20.332031 -37.65625 21.265625 -36.953125 22.578125 -36.203125 C 23.890625 -35.460938 25.046875 -34.863281 26.046875 -34.40625 C 27.046875 -33.957031 28.585938 -33.28125 30.671875 -32.375 C 34.296875 -30.832031 37.390625 -28.734375 39.953125 -26.078125 C 42.515625 -23.421875 43.796875 -20.414062 43.796875 -17.0625 C 43.796875 -13.84375 43.21875 -11.03125 42.0625 -8.625 C 40.90625 -6.226562 39.316406 -4.347656 37.296875 -2.984375 C 35.273438 -1.628906 33.039062 -0.625 30.59375 0.03125 C 28.144531 0.6875 25.492188 1.015625 22.640625 1.015625 C 20.191406 1.015625 17.789062 0.765625 15.4375 0.265625 C 13.082031 -0.222656 11.109375 -0.84375 9.515625 -1.59375 C 7.929688 -2.34375 6.503906 -3.078125 5.234375 -3.796875 C 3.960938 -4.523438 3.035156 -5.140625 2.453125 -5.640625 L 1.5625 -6.390625 L 7.953125 -17.140625 C 8.492188 -16.679688 9.238281 -16.097656 10.1875 -15.390625 C 11.144531 -14.691406 12.835938 -13.753906 15.265625 -12.578125 C 17.691406 -11.398438 19.832031 -10.8125 21.6875 -10.8125 C 27.082031 -10.8125 29.78125 -12.644531 29.78125 -16.3125 C 29.78125 -17.082031 29.585938 -17.796875 29.203125 -18.453125 C 28.816406 -19.117188 28.132812 -19.78125 27.15625 -20.4375 C 26.1875 -21.09375 25.328125 -21.613281 24.578125 -22 C 23.828125 -22.382812 22.601562 -22.972656 20.90625 -23.765625 C 19.207031 -24.554688 17.953125 -25.15625 17.140625 -25.5625 C 13.734375 -27.238281 11.097656 -29.332031 9.234375 -31.84375 C 7.378906 -34.363281 6.453125 -37.078125 6.453125 -39.984375 C 6.453125 -45.015625 8.3125 -49.128906 12.03125 -52.328125 C 15.75 -55.523438 19.988281 -57.125 24.75 -57.125 Z M 24.75 -57.125 "/></g></g></g><g fill="#ff0000" fill-opacity="1"><g transform="translate(208.629723, 74.447456)"><g><path d="M 36.515625 -56.09375 L 36.515625 -44.875 L 16.859375 -44.875 L 16.859375 -33.734375 L 35.015625 -33.734375 L 35.015625 -22.515625 L 16.859375 -22.515625 L 16.859375 0 L 4.078125 0 L 4.078125 -56.09375 Z M 36.515625 -56.09375 "/></g></g></g><g fill="#ff0000" fill-opacity="1"><g transform="translate(250.578966, 74.447456)"><g><path d="M 16.859375 -56.09375 L 16.859375 -11.21875 L 36.171875 -11.21875 L 36.171875 0 L 4.078125 0 L 4.078125 -56.09375 Z M 16.859375 -56.09375 "/></g></g></g><g fill="#ff0000" fill-opacity="1"><g transform="translate(292.392241, 74.447456)"><g><path d="M 16.859375 -56.09375 L 16.859375 0 L 4.078125 0 L 4.078125 -56.09375 Z M 16.859375 -56.09375 "/></g></g></g><g fill="#ff0000" fill-opacity="1"><g transform="translate(316.732649, 74.447456)"><g><path d="M 56.578125 0 L 40.046875 0 L 26.796875 -19.109375 L 13.53125 0 L -2.3125 0 L 18.90625 -30.1875 L 1.21875 -56.09375 L 16.453125 -56.09375 L 26.796875 -40.796875 L 37.125 -56.09375 L 53.046875 -56.09375 L 34.6875 -30.1875 Z M 56.578125 0 "/></g></g></g></svg>